<svg xmlns="http://www.w3.org/2000/svg" width="801.921" height="597.457" viewBox="0 0 801.921 597.457"><circle cx="436.314" cy="42" r="18.934" fill="#3b82f6"/><path fill="#fff" d="M434.438 49.223c-.426 0-.84-.137-1.182-.393l-.02-.016-4.45-3.404a1.977 1.977 0 0 1 2.406-3.138l2.882 2.21 6.81-8.886a1.977 1.977 0 0 1 2.772-.366l-.042.06.044-.06a1.98 1.98 0 0 1 .365 2.773l-8.01 10.446a1.98 1.98 0 0 1-1.574.771z"/><circle cx="436.314" cy="170" r="18.934" fill="#3b82f6"/><path fill="#fff" d="M434.438 177.223c-.426 0-.84-.137-1.182-.393l-.02-.016-4.45-3.404a1.977 1.977 0 1 1 2.406-3.138l2.882 2.21 6.81-8.885a1.977 1.977 0 0 1 2.772-.367l-.042.06.044-.06a1.98 1.98 0 0 1 .365 2.773l-8.01 10.446a1.98 1.98 0 0 1-1.574.771z"/><path fill="#ffb7b7" d="M483.864 368.96a10.746 10.746 0 0 1 12.21-11.065l17.34-34.024 9.799 17.256-17.97 29.663c-1.206 5.844-6.921 9.603-12.765 8.397a10.804 10.804 0 0 1-8.614-10.228M564.71 583.194l-13.609-.001-6.474-52.491 20.085.001z"/><path fill="#2f2e41" d="m568.18 596.386-43.88-.002v-.555c0-9.433 7.647-17.079 17.08-17.08l26.801.002z"/><path fill="#ffb7b7" d="m638.483 583.194-13.609-.001-6.474-52.491 20.085.001z"/><path fill="#2f2e41" d="m641.953 596.386-43.88-.002v-.555c0-9.433 7.647-17.079 17.08-17.08l26.801.002z"/><path fill="#e5e5e5" d="m504.767 339.349-5.941 9.901s9.901 0 11.882 14.852l7.92-9.901z"/><path fill="#2f2e41" d="M608.732 318.556s15.843 41.586 18.813 67.33 7.921 94.064 7.921 94.064l9.902 88.123-27.724 3.96-11.882-89.113-26.734-88.123-5.941 88.123-4.95 80.202-25.745.99-1.98-83.172-10.892-105.946 5.941-50.498z"/><path fill="#e5e5e5" d="m589.424 192.312 9.902 6.93 12.872 129.71-80.202 1.98 10.892-90.103 9.901-25.744 7.147-9.449z"/><path fill="#2f2e41" d="m591.405 285.386 3.03-89.567s5.881.453 7.862 3.424 34.655 8.91 34.655 8.91l-5.941 92.085s24.754 73.27 15.842 77.231-24.753 2.97-24.753 2.97zM543.383 273.999l10.503-60.365-23.375 15.808 5.94 43.567-4.95 29.704s-18.813 82.183-12.872 85.153 12.872 0 12.872 0l11.882-83.173z"/><path fill="#2f2e41" d="m537.442 227.462-6.931 1.98-2.97 39.606-4.952 34.655-23.763 42.577s11.882-7.921 16.832 14.852l26.171-45.564z"/><path fill="#ffb7b7" d="M591.3 360.839c.923-5.863 6.424-9.867 12.286-8.943q.94.148 1.838.458l23.616-30.009 6.262 18.83-23.385 25.61c-2.318 5.499-8.654 8.077-14.153 5.76a10.804 10.804 0 0 1-6.464-11.706"/><path fill="#e5e5e5" d="m631.506 350.24-8.911 10.892-11.882-20.793 4.95-8.911z"/><path fill="#2f2e41" d="m629.526 211.62 7.92-3.961s5.942 7.921 6.932 14.852 5.94 15.842 5.94 20.793 13.863 51.488 13.863 51.488l-31.685 64.36s-6.931-23.764-21.783-25.744l24.753-34.655-13.862-24.754z"/><path fill="#cbcbcb" d="M800.921 596.996h-381a1 1 0 1 1 0-2h381a1 1 0 1 1 0 2"/><path fill="#fff" d="M365 212H0v-84h365z"/><path fill="#3b82f6" d="M52.678 155.774a3.556 3.556 0 1 0 0 7.113h259.66a3.556 3.556 0 1 0 0-7.113zM52.678 177.113a3.556 3.556 0 1 0-.015 7.113h164.16a3.556 3.556 0 1 0 0-7.113z"/><path fill="#e5e5e5" d="M365 212H0v-84h365zM6 206h353v-72H6z"/><path fill="#fff" d="M365 340H0v-84h365z"/><path fill="#e6e6e6" d="M52.678 283.774a3.556 3.556 0 1 0 0 7.113h259.66a3.556 3.556 0 1 0 0-7.113zM52.678 305.113a3.556 3.556 0 1 0-.015 7.113h164.16a3.556 3.556 0 0 0 0-7.113z"/><path fill="#e5e5e5" d="M365 340H0v-84h365zM6 334h353v-72H6z"/><path fill="#fff" d="M368 84H3V0h365z"/><path fill="#3b82f6" d="M55.678 27.774a3.556 3.556 0 0 0 0 7.113h259.66a3.556 3.556 0 0 0 0-7.113zM55.678 49.113a3.556 3.556 0 0 0-.015 7.113h164.16a3.556 3.556 0 1 0 0-7.113z"/><path fill="#e5e5e5" d="M368 84H3V0h365zM9 78h353V6H9z"/><path fill="#f1f1f1" d="M739.248 597.457v-72.34s28.192 51.286 0 72.34"/><path fill="#f1f1f1" d="m740.99 597.445-53.29-48.922s56.845 13.916 53.29 48.922"/><circle cx="484.314" cy="347.846" r="18.934" fill="#3b82f6"/><path fill="#fff" d="M482.438 355.068c-.426.001-.84-.137-1.182-.392l-.02-.016-4.45-3.404a1.977 1.977 0 0 1 2.406-3.139l2.882 2.21 6.81-8.885a1.977 1.977 0 0 1 2.772-.366l-.042.06.044-.06a1.98 1.98 0 0 1 .365 2.772l-8.01 10.447a1.98 1.98 0 0 1-1.574.771z"/><circle cx="561.587" cy="166.85" r="27.103" fill="#ffb6b6"/><path fill="#2f2e41" d="M585.262 187.674s8.027-16.257 7.884-22.464-4.528-22.178-6.38-23.231-21.809-11.187-27.218-8.14-14.928 13.468-25.195 16.287c-2.904.798-.369 15.716-.369 15.716L546 164.104s12.526-11.247 13.068-3.588 12.157 4.468 12.157 4.468l.143 6.207 4.755.256 1.309-6.606s2.136 13.467-.625 20.47 8.456 2.363 8.456 2.363"/></svg>